<svg width="21" height="20" viewBox="0 0 21 20" fill="none" xmlns="http://www.w3.org/2000/svg">
<path d="M19.5823 15.8175C19.1526 15.8175 18.7929 15.5164 18.692 15.0985C18.0477 12.4264 16.6233 9.78926 14.7182 7.55829L2.63751 19.6339C2.393 19.8782 2.07257 20 1.75213 20C1.43169 20 1.11125 19.8782 0.866751 19.6339C0.37775 19.1451 0.37775 18.3537 0.866751 17.8649L12.9491 5.78936C10.7144 3.87949 8.07077 2.45167 5.39127 1.80615C4.97403 1.70524 4.67195 1.34578 4.67195 0.916265C4.67279 0.405019 5.09587 -0.0169879 5.6074 0.000526234C9.73638 0.145643 13.0467 1.26488 15.4909 3.24898L16.7226 2.01799C17.2116 1.52926 18.0035 1.52926 18.4925 2.01799C18.9815 2.50672 18.9815 3.29819 18.4925 3.78692L17.26 5.01874C19.2385 7.46071 20.3542 10.7642 20.4994 14.8834C20.5178 15.3946 20.0947 15.8175 19.5823 15.8175Z" fill="black"/>
</svg>
