<svg width="21" height="20" viewBox="0 0 21 20" fill="none" xmlns="http://www.w3.org/2000/svg">
<path d="M8 10C10.7614 10 13 7.76142 13 5C13 2.23858 10.7614 0 8 0C5.23858 0 3 2.23858 3 5C3 7.76142 5.23858 10 8 10Z" fill="black"/>
<path d="M8.00002 11.5C3.85997 11.5052 0.505039 14.9272 0.5 19.15C0.5 19.6195 0.873087 20 1.33332 20H14.6667C15.1269 20 15.5 19.6195 15.5 19.15C15.495 14.9272 12.1401 11.5052 8.00002 11.5Z" fill="black"/>
<path d="M18.8741 6.5C17.9333 6.54892 17.2073 7.38275 17.25 8.36529C17.2928 7.38275 16.5668 6.54892 15.6259 6.5C14.6851 6.54892 13.959 7.38275 14.0018 8.36529C14.0018 9.83211 15.8338 11.5507 16.7465 12.3155C17.0408 12.5615 17.4592 12.5615 17.7535 12.3155C18.6662 11.5524 20.4982 9.83211 20.4982 8.36529C20.541 7.38271 19.815 6.54892 18.8741 6.5Z" fill="black"/>
</svg>
