<svg width="21" height="20" viewBox="0 0 21 20" fill="none" xmlns="http://www.w3.org/2000/svg">
<path fill-rule="evenodd" clip-rule="evenodd" d="M0.835367 5.87495C0.294907 7.00229 0.484627 8.3208 0.864067 10.9579L1.14284 12.8952C1.63025 16.2827 1.87396 17.9764 3.04903 18.9882C4.22409 20 5.94737 20 9.3939 20H11.6061C15.0526 20 16.7759 20 17.951 18.9882C19.126 17.9764 19.3697 16.2827 19.8572 12.8952L20.1359 10.9579C20.5154 8.3208 20.7051 7.00229 20.1646 5.87495C19.6242 4.7476 18.4738 4.06234 16.1731 2.69181L14.7882 1.86687C12.699 0.62229 11.6543 0 10.5 0C9.3457 0 8.30104 0.62229 6.21175 1.86687L4.82691 2.69181C2.52619 4.06234 1.37583 4.7476 0.835367 5.87495ZM6.7501 15.9998C6.7501 15.5856 7.08589 15.2498 7.5001 15.2498H13.5001C13.9143 15.2498 14.2501 15.5856 14.2501 15.9998C14.2501 16.414 13.9143 16.7498 13.5001 16.7498H7.5001C7.08589 16.7498 6.7501 16.414 6.7501 15.9998Z" fill="#007AFE"/>
</svg>
