<svg width="26" height="28" viewBox="0 0 26 28" fill="none" xmlns="http://www.w3.org/2000/svg">
<path d="M14.2288 5.9255C15.3617 4.865 16.9635 3.17217 17.6052 1.5575C17.9027 0.809667 17.3053 0 16.5003 0H9.50033C8.69533 0 8.09799 0.8085 8.39549 1.5575C9.03716 3.17217 10.639 4.865 11.7718 5.9255C5.49749 6.85767 0.166992 14.721 0.166992 21C0.166992 24.8605 3.30649 28 7.16699 28H18.8337C22.6942 28 25.8337 24.8605 25.8337 21C25.8337 14.721 20.5032 6.85767 14.2288 5.9255ZM11.4183 16.0545L14.9673 16.646C16.5318 16.9062 17.6682 18.2478 17.6682 19.8345C17.6682 21.7642 16.0978 23.3345 14.1682 23.3345V24.5012C14.1682 25.1452 13.6455 25.6678 13.0015 25.6678C12.3575 25.6678 11.8348 25.1452 11.8348 24.5012V23.3345H11.5222C10.2762 23.3345 9.11533 22.6648 8.49116 21.5857C8.16916 21.028 8.35933 20.3152 8.91699 19.992C9.47233 19.6688 10.1875 19.859 10.5107 20.4178C10.7183 20.7772 11.1068 21.0012 11.5222 21.0012H14.1682C14.811 21.0012 15.3348 20.4773 15.3348 19.8345C15.3348 19.3935 15.0187 19.0202 14.5835 18.9478L11.0345 18.3563C9.46999 18.0962 8.33366 16.7545 8.33366 15.1678C8.33366 13.2382 9.90399 11.6678 11.8337 11.6678V10.5012C11.8337 9.85717 12.3563 9.3345 13.0003 9.3345C13.6443 9.3345 14.167 9.85717 14.167 10.5012V11.6678H14.4797C15.7245 11.6678 16.8865 12.3387 17.5107 13.4178C17.8327 13.9755 17.6425 14.6883 17.0848 15.0115C16.5283 15.3347 15.8143 15.1445 15.4912 14.5857C15.2823 14.2252 14.895 14.0023 14.4797 14.0023H11.8337C11.1908 14.0023 10.667 14.5262 10.667 15.169C10.667 15.61 10.9832 15.9833 11.4183 16.0557V16.0545Z" fill="#007AFE"/>
</svg>
