<svg width="21" height="20" viewBox="0 0 21 20" fill="none" xmlns="http://www.w3.org/2000/svg">
<path d="M13 10C13 11.3783 11.8783 12.5 10.5 12.5C9.12167 12.5 8 11.3783 8 10C8 8.62167 9.12167 7.5 10.5 7.5C11.8783 7.5 13 8.62167 13 10ZM20.5 10C20.5 10.4608 20.1267 10.8333 19.6667 10.8333H18.7917C18.3992 14.7642 15.2642 17.9 11.3333 18.2917V19.1667C11.3333 19.6275 10.96 20 10.5 20C10.04 20 9.66667 19.6275 9.66667 19.1667V18.2917C5.73583 17.8992 2.6 14.7642 2.20833 10.8333H1.33333C0.873333 10.8333 0.5 10.4608 0.5 10C0.5 9.53917 0.873333 9.16667 1.33333 9.16667H2.20833C2.6 5.23583 5.73583 2.1 9.66667 1.70833V0.833333C9.66667 0.3725 10.04 0 10.5 0C10.96 0 11.3333 0.3725 11.3333 0.833333V1.70833C15.2642 2.10083 18.4 5.23583 18.7917 9.16667H19.6667C20.1267 9.16667 20.5 9.53917 20.5 10ZM14.6667 10C14.6667 7.7025 12.7975 5.83333 10.5 5.83333C8.2025 5.83333 6.33333 7.7025 6.33333 10C6.33333 12.2975 8.2025 14.1667 10.5 14.1667C12.7975 14.1667 14.6667 12.2975 14.6667 10Z" fill="black"/>
</svg>
