<svg width="14" height="14" viewBox="0 0 14 14" fill="none" xmlns="http://www.w3.org/2000/svg">
<path d="M8.21917 9.33336H8.75C12.6251 9.33336 14 7.29169 14 5.54169C13.9994 5.06743 13.8338 4.60817 13.5315 4.24274C13.2292 3.87732 12.8091 3.62854 12.3433 3.53911C12.4367 3.3506 12.5164 3.15566 12.5819 2.95577C12.6837 2.61449 12.7038 2.25402 12.6403 1.90357C12.5769 1.55311 12.4318 1.22253 12.2168 0.938607C11.9998 0.646028 11.717 0.408613 11.3913 0.24556C11.0656 0.0825074 10.7061 -0.00160568 10.3419 2.32147e-05H3.65808C3.2937 -0.00140346 2.93411 0.0829791 2.60839 0.246341C2.28268 0.409704 2.00001 0.647456 1.78325 0.940357C1.56824 1.22428 1.42313 1.55486 1.35969 1.90532C1.29625 2.25577 1.31625 2.61624 1.41808 2.95752C1.4836 3.15741 1.56334 3.35235 1.65667 3.54086C1.19121 3.63023 0.771352 3.87876 0.469085 4.24382C0.166817 4.60888 0.000976298 5.06773 0 5.54169C0 7.29169 1.37492 9.33336 5.25 9.33336H5.78083C5.81481 9.51044 5.83239 9.69029 5.83333 9.87061V11.6667C5.84336 11.8225 5.82005 11.9787 5.76496 12.1247C5.70988 12.2708 5.62428 12.4035 5.51388 12.5139C5.40348 12.6243 5.27081 12.7099 5.12472 12.765C4.97863 12.8201 4.82248 12.8434 4.66667 12.8334H3.5C3.34529 12.8334 3.19692 12.8948 3.08752 13.0042C2.97812 13.1136 2.91667 13.262 2.91667 13.4167C2.91667 13.5714 2.97812 13.7198 3.08752 13.8292C3.19692 13.9386 3.34529 14 3.5 14H10.5C10.6547 14 10.8031 13.9386 10.9125 13.8292C11.0219 13.7198 11.0833 13.5714 11.0833 13.4167C11.0833 13.262 11.0219 13.1136 10.9125 13.0042C10.8031 12.8948 10.6547 12.8334 10.5 12.8334H9.33683C9.18079 12.8437 9.02433 12.8207 8.8779 12.7657C8.73147 12.7108 8.59844 12.6253 8.48769 12.5149C8.37694 12.4045 8.29102 12.2717 8.23566 12.1254C8.1803 11.9792 8.15678 11.8228 8.16667 11.6667V9.87002C8.16764 9.6899 8.18521 9.51025 8.21917 9.33336ZM9.1735 7.67027C10.173 6.78481 11.0377 5.75798 11.7402 4.62236C11.8094 4.651 11.8834 4.66605 11.9583 4.66669C12.1904 4.66669 12.413 4.75888 12.5771 4.92297C12.7411 5.08707 12.8333 5.30963 12.8333 5.54169C12.8333 6.81102 11.7606 8.16669 8.75 8.16669H8.71733C8.84886 7.98347 9.00203 7.81679 9.1735 7.67027ZM5.25 8.16669C2.23942 8.16669 1.16667 6.81102 1.16667 5.54169C1.16667 5.30963 1.25885 5.08707 1.42295 4.92297C1.58704 4.75888 1.8096 4.66669 2.04167 4.66669C2.11676 4.66613 2.19103 4.65108 2.26042 4.62236C2.96286 5.75798 3.82756 6.78481 4.82708 7.67027C4.99835 7.81682 5.15132 7.9835 5.28267 8.16669H5.25Z" fill="#007AFE"/>
</svg>
