<svg width="17" height="24" viewBox="0 0 17 24" fill="none" xmlns="http://www.w3.org/2000/svg">
<path d="M8.23981 24C7.91219 23.9989 7.58873 23.9265 7.29181 23.788C6.80682 23.5721 6.41731 23.1865 6.19637 22.7038C5.97543 22.221 5.93825 21.6743 6.09181 21.166L7.65281 16H3.97481C3.50621 16.0006 3.044 15.8914 2.62521 15.6812C2.20643 15.4709 1.84271 15.1655 1.56322 14.7894C1.28373 14.4133 1.09624 13.9769 1.01576 13.5153C0.935288 13.0536 0.964072 12.5796 1.09981 12.131L4.12381 2.13105C4.30814 1.51253 4.6881 0.970475 5.20666 0.58624C5.72522 0.202005 6.35442 -0.00368163 6.99981 4.98893e-05H10.6928C11.1126 0.000401032 11.526 0.102376 11.8978 0.29726C12.2695 0.492143 12.5886 0.774141 12.8277 1.11915C13.0668 1.46417 13.2188 1.86193 13.2707 2.27847C13.3226 2.695 13.2729 3.11791 13.1258 3.51105L11.4428 8.00005H13.9998C14.5449 8.00001 15.0796 8.14846 15.5467 8.42946C16.0137 8.71046 16.3954 9.11338 16.6506 9.59496C16.9059 10.0765 17.0252 10.6186 16.9956 11.1628C16.9661 11.7071 16.7888 12.233 16.4828 12.684L10.0828 22.984C9.88496 23.2939 9.61262 23.5492 9.29068 23.7267C8.96873 23.9042 8.60743 23.9982 8.23981 24Z" fill="#007AFE"/>
</svg>
