<svg width="48" height="48" viewBox="0 0 48 48" fill="none" xmlns="http://www.w3.org/2000/svg">
<g clip-path="url(#clip0_20_842)">
<path d="M0.000563419 23.9718C-0.019849 29.1006 4.12134 33.2749 9.2502 33.2953C11.6122 33.3046 13.8892 32.4136 15.6174 30.8035L29.4563 37.0518C29.3602 37.5692 29.3075 38.0937 29.2986 38.6199C29.2823 43.7841 33.4553 47.9836 38.6195 48C43.7836 48.0164 47.9831 43.8432 47.9995 38.6791C48.0159 33.5149 43.8428 29.3154 38.6786 29.299C35.5933 29.2893 32.7017 30.8021 30.9506 33.3424L17.9485 27.4715C18.872 25.2415 18.8756 22.7367 17.9585 20.5041L30.9426 14.6033C33.8664 18.8319 39.6645 19.8896 43.8932 16.9659C48.1218 14.0421 49.1794 8.24408 46.2557 4.01543C43.3319 -0.21322 37.5338 -1.27092 33.3051 1.65283C30.7868 3.39407 29.2857 6.2622 29.2905 9.32388C29.2989 9.85085 29.3524 10.3761 29.4504 10.8939L15.6473 17.1662C11.9077 13.6546 6.02934 13.8395 2.51775 17.5792C0.89253 19.3101 -0.00823827 21.5975 0.000563419 23.9718Z" fill="#007AFE"/>
</g>
<defs>
<clipPath id="clip0_20_842">
<rect width="48" height="48" fill="white"/>
</clipPath>
</defs>
</svg>
