<svg xmlns="http://www.w3.org/2000/svg">
  
  <symbol id="main" viewBox="0 0 21 20">
    <path d="M0.835367 5.87495C0.294907 7.00229 0.484627 8.3208 0.864067 10.9579L1.14284 12.8952C1.63025 16.2827 1.87396 17.9764 3.04903 18.9882C4.22409 20 5.94737 20 9.3939 20H11.6061C15.0526 20 16.7759 20 17.951 18.9882C19.126 17.9764 19.3697 16.2827 19.8572 12.8952L20.1359 10.9579C20.5154 8.3208 20.7051 7.00229 20.1646 5.87495C19.6242 4.7476 18.4738 4.06234 16.1731 2.69181L14.7882 1.86687C12.699 0.62229 11.6543 0 10.5 0C9.3457 0 8.30104 0.62229 6.21175 1.86687L4.82691 2.69181C2.52619 4.06234 1.37583 4.7476 0.835367 5.87495ZM6.7501 15.9998C6.7501 15.5856 7.08589 15.2498 7.5001 15.2498H13.5001C13.9143 15.2498 14.2501 15.5856 14.2501 15.9998C14.2501 16.414 13.9143 16.7498 13.5001 16.7498H7.5001C7.08589 16.7498 6.7501 16.414 6.7501 15.9998Z"/>
  </symbol>

   <symbol id="earn" viewBox="0 0 21 20">
      <path d="M19.5823 15.8175C19.1526 15.8175 18.7929 15.5164 18.692 15.0985C18.0477 12.4264 16.6233 9.78926 14.7182 7.55829L2.63751 19.6339C2.393 19.8782 2.07257 20 1.75213 20C1.43169 20 1.11125 19.8782 0.866751 19.6339C0.37775 19.1451 0.37775 18.3537 0.866751 17.8649L12.9491 5.78936C10.7144 3.87949 8.07077 2.45167 5.39127 1.80615C4.97403 1.70524 4.67195 1.34578 4.67195 0.916265C4.67279 0.405019 5.09587 -0.0169879 5.6074 0.000526234C9.73638 0.145643 13.0467 1.26488 15.4909 3.24898L16.7226 2.01799C17.2116 1.52926 18.0035 1.52926 18.4925 2.01799C18.9815 2.50672 18.9815 3.29819 18.4925 3.78692L17.26 5.01874C19.2385 7.46071 20.3542 10.7642 20.4994 14.8834C20.5178 15.3946 20.0947 15.8175 19.5823 15.8175Z" fill=""/>
   </symbol>

   <symbol id="quests" viewBox="0 0 21 20">
      <path d="M13 10C13 11.3783 11.8783 12.5 10.5 12.5C9.12167 12.5 8 11.3783 8 10C8 8.62167 9.12167 7.5 10.5 7.5C11.8783 7.5 13 8.62167 13 10ZM20.5 10C20.5 10.4608 20.1267 10.8333 19.6667 10.8333H18.7917C18.3992 14.7642 15.2642 17.9 11.3333 18.2917V19.1667C11.3333 19.6275 10.96 20 10.5 20C10.04 20 9.66667 19.6275 9.66667 19.1667V18.2917C5.73583 17.8992 2.6 14.7642 2.20833 10.8333H1.33333C0.873333 10.8333 0.5 10.4608 0.5 10C0.5 9.53917 0.873333 9.16667 1.33333 9.16667H2.20833C2.6 5.23583 5.73583 2.1 9.66667 1.70833V0.833333C9.66667 0.3725 10.04 0 10.5 0C10.96 0 11.3333 0.3725 11.3333 0.833333V1.70833C15.2642 2.10083 18.4 5.23583 18.7917 9.16667H19.6667C20.1267 9.16667 20.5 9.53917 20.5 10ZM14.6667 10C14.6667 7.7025 12.7975 5.83333 10.5 5.83333C8.2025 5.83333 6.33333 7.7025 6.33333 10C6.33333 12.2975 8.2025 14.1667 10.5 14.1667C12.7975 14.1667 14.6667 12.2975 14.6667 10Z" fill=""/>
   </symbol>

   <symbol id="friends" viewBox="0 0 21 20">
      <path d="M8 10C10.7614 10 13 7.76142 13 5C13 2.23858 10.7614 0 8 0C5.23858 0 3 2.23858 3 5C3 7.76142 5.23858 10 8 10Z" fill=""/>
      <path d="M8.00002 11.5C3.85997 11.5052 0.505039 14.9272 0.5 19.15C0.5 19.6195 0.873087 20 1.33332 20H14.6667C15.1269 20 15.5 19.6195 15.5 19.15C15.495 14.9272 12.1401 11.5052 8.00002 11.5Z" fill=""/>
      <path d="M18.8741 6.5C17.9333 6.54892 17.2073 7.38275 17.25 8.36529C17.2928 7.38275 16.5668 6.54892 15.6259 6.5C14.6851 6.54892 13.959 7.38275 14.0018 8.36529C14.0018 9.83211 15.8338 11.5507 16.7465 12.3155C17.0408 12.5615 17.4592 12.5615 17.7535 12.3155C18.6662 11.5524 20.4982 9.83211 20.4982 8.36529C20.541 7.38271 19.815 6.54892 18.8741 6.5Z" fill=""/>
   </symbol>
   
   <symbol id="money" viewBox="0 0 26 28">
      <path d="M14.2288 5.9255C15.3617 4.865 16.9635 3.17217 17.6052 1.5575C17.9027 0.809667 17.3053 0 16.5003 0H9.50033C8.69533 0 8.09799 0.8085 8.39549 1.5575C9.03716 3.17217 10.639 4.865 11.7718 5.9255C5.49749 6.85767 0.166992 14.721 0.166992 21C0.166992 24.8605 3.30649 28 7.16699 28H18.8337C22.6942 28 25.8337 24.8605 25.8337 21C25.8337 14.721 20.5032 6.85767 14.2288 5.9255ZM11.4183 16.0545L14.9673 16.646C16.5318 16.9062 17.6682 18.2478 17.6682 19.8345C17.6682 21.7642 16.0978 23.3345 14.1682 23.3345V24.5012C14.1682 25.1452 13.6455 25.6678 13.0015 25.6678C12.3575 25.6678 11.8348 25.1452 11.8348 24.5012V23.3345H11.5222C10.2762 23.3345 9.11533 22.6648 8.49116 21.5857C8.16916 21.028 8.35933 20.3152 8.91699 19.992C9.47233 19.6688 10.1875 19.859 10.5107 20.4178C10.7183 20.7772 11.1068 21.0012 11.5222 21.0012H14.1682C14.811 21.0012 15.3348 20.4773 15.3348 19.8345C15.3348 19.3935 15.0187 19.0202 14.5835 18.9478L11.0345 18.3563C9.46999 18.0962 8.33366 16.7545 8.33366 15.1678C8.33366 13.2382 9.90399 11.6678 11.8337 11.6678V10.5012C11.8337 9.85717 12.3563 9.3345 13.0003 9.3345C13.6443 9.3345 14.167 9.85717 14.167 10.5012V11.6678H14.4797C15.7245 11.6678 16.8865 12.3387 17.5107 13.4178C17.8327 13.9755 17.6425 14.6883 17.0848 15.0115C16.5283 15.3347 15.8143 15.1445 15.4912 14.5857C15.2823 14.2252 14.895 14.0023 14.4797 14.0023H11.8337C11.1908 14.0023 10.667 14.5262 10.667 15.169C10.667 15.61 10.9832 15.9833 11.4183 16.0557V16.0545Z" fill=""/>
   </symbol>

</svg>