<svg xmlns="http://www.w3.org/2000/svg">
  
  <symbol id="main" viewBox="0 0 21 20">
    <path d="M0.835367 5.87495C0.294907 7.00229 0.484627 8.3208 0.864067 10.9579L1.14284 12.8952C1.63025 16.2827 1.87396 17.9764 3.04903 18.9882C4.22409 20 5.94737 20 9.3939 20H11.6061C15.0526 20 16.7759 20 17.951 18.9882C19.126 17.9764 19.3697 16.2827 19.8572 12.8952L20.1359 10.9579C20.5154 8.3208 20.7051 7.00229 20.1646 5.87495C19.6242 4.7476 18.4738 4.06234 16.1731 2.69181L14.7882 1.86687C12.699 0.62229 11.6543 0 10.5 0C9.3457 0 8.30104 0.62229 6.21175 1.86687L4.82691 2.69181C2.52619 4.06234 1.37583 4.7476 0.835367 5.87495ZM6.7501 15.9998C6.7501 15.5856 7.08589 15.2498 7.5001 15.2498H13.5001C13.9143 15.2498 14.2501 15.5856 14.2501 15.9998C14.2501 16.414 13.9143 16.7498 13.5001 16.7498H7.5001C7.08589 16.7498 6.7501 16.414 6.7501 15.9998Z"/>
  </symbol>

   <symbol id="earn" viewBox="0 0 21 20">
      <path d="M19.5823 15.8175C19.1526 15.8175 18.7929 15.5164 18.692 15.0985C18.0477 12.4264 16.6233 9.78926 14.7182 7.55829L2.63751 19.6339C2.393 19.8782 2.07257 20 1.75213 20C1.43169 20 1.11125 19.8782 0.866751 19.6339C0.37775 19.1451 0.37775 18.3537 0.866751 17.8649L12.9491 5.78936C10.7144 3.87949 8.07077 2.45167 5.39127 1.80615C4.97403 1.70524 4.67195 1.34578 4.67195 0.916265C4.67279 0.405019 5.09587 -0.0169879 5.6074 0.000526234C9.73638 0.145643 13.0467 1.26488 15.4909 3.24898L16.7226 2.01799C17.2116 1.52926 18.0035 1.52926 18.4925 2.01799C18.9815 2.50672 18.9815 3.29819 18.4925 3.78692L17.26 5.01874C19.2385 7.46071 20.3542 10.7642 20.4994 14.8834C20.5178 15.3946 20.0947 15.8175 19.5823 15.8175Z" fill=""/>
   </symbol>

   <symbol id="quests" viewBox="0 0 21 20">
      <path d="M13 10C13 11.3783 11.8783 12.5 10.5 12.5C9.12167 12.5 8 11.3783 8 10C8 8.62167 9.12167 7.5 10.5 7.5C11.8783 7.5 13 8.62167 13 10ZM20.5 10C20.5 10.4608 20.1267 10.8333 19.6667 10.8333H18.7917C18.3992 14.7642 15.2642 17.9 11.3333 18.2917V19.1667C11.3333 19.6275 10.96 20 10.5 20C10.04 20 9.66667 19.6275 9.66667 19.1667V18.2917C5.73583 17.8992 2.6 14.7642 2.20833 10.8333H1.33333C0.873333 10.8333 0.5 10.4608 0.5 10C0.5 9.53917 0.873333 9.16667 1.33333 9.16667H2.20833C2.6 5.23583 5.73583 2.1 9.66667 1.70833V0.833333C9.66667 0.3725 10.04 0 10.5 0C10.96 0 11.3333 0.3725 11.3333 0.833333V1.70833C15.2642 2.10083 18.4 5.23583 18.7917 9.16667H19.6667C20.1267 9.16667 20.5 9.53917 20.5 10ZM14.6667 10C14.6667 7.7025 12.7975 5.83333 10.5 5.83333C8.2025 5.83333 6.33333 7.7025 6.33333 10C6.33333 12.2975 8.2025 14.1667 10.5 14.1667C12.7975 14.1667 14.6667 12.2975 14.6667 10Z" fill=""/>
   </symbol>

   <symbol id="friends" viewBox="0 0 21 20">
      <path d="M8 10C10.7614 10 13 7.76142 13 5C13 2.23858 10.7614 0 8 0C5.23858 0 3 2.23858 3 5C3 7.76142 5.23858 10 8 10Z" fill=""/>
      <path d="M8.00002 11.5C3.85997 11.5052 0.505039 14.9272 0.5 19.15C0.5 19.6195 0.873087 20 1.33332 20H14.6667C15.1269 20 15.5 19.6195 15.5 19.15C15.495 14.9272 12.1401 11.5052 8.00002 11.5Z" fill=""/>
      <path d="M18.8741 6.5C17.9333 6.54892 17.2073 7.38275 17.25 8.36529C17.2928 7.38275 16.5668 6.54892 15.6259 6.5C14.6851 6.54892 13.959 7.38275 14.0018 8.36529C14.0018 9.83211 15.8338 11.5507 16.7465 12.3155C17.0408 12.5615 17.4592 12.5615 17.7535 12.3155C18.6662 11.5524 20.4982 9.83211 20.4982 8.36529C20.541 7.38271 19.815 6.54892 18.8741 6.5Z" fill=""/>
   </symbol>

</svg>